<svg xmlns="http://www.w3.org/2000/svg" viewBox="0 0 320 80" fill="none">
  
  <g transform="translate(8, 16)" stroke="currentColor" stroke-width="1.2" fill="none" stroke-linecap="round" stroke-linejoin="round">
    <path d="M24 44 C 24 28, 18 18, 8 14 C 12 28, 16 38, 24 44 Z"></path>
    <path d="M24 44 C 24 28, 30 18, 40 14 C 36 28, 32 38, 24 44 Z"></path>
    <path d="M24 44 C 18 32, 12 26, 4 28 C 8 36, 14 42, 24 44 Z"></path>
    <path d="M24 44 C 30 32, 36 26, 44 28 C 40 36, 34 42, 24 44 Z"></path>
    <path d="M24 44 C 24 30, 24 22, 24 12"></path>
    <ellipse cx="24" cy="46" rx="12" ry="1.5" stroke-width="0.8" opacity="0.5"></ellipse>
  </g>

  
  <text x="68" y="52" font-family="&#39;Cormorant Garamond&#39;, &#39;Cormorant&#39;, Georgia, serif" font-size="36" font-weight="500" letter-spacing="0.04em" fill="currentColor">SUKSAI</text>
  <text x="69" y="68" font-family="Manrope, sans-serif" font-size="9" font-weight="500" letter-spacing="0.36em" fill="currentColor" opacity="0.7">THAI · MASSAGE</text>
</svg>